ffmpeg version 6.1.1 Copyright (c) 2000-2023 the FFmpeg developers
  built with Apple clang version 14.0.0 (clang-1400.0.29.202)
  configuration: --prefix=/usr/local/Cellar/ffmpeg/6.1.1_1 --enable-shared --enable-pthreads --enable-version3 --cc=clang --host-cflags= --host-ldflags= --enable-ffplay --enable-gnutls --enable-gpl --enable-libaom --enable-libaribb24 --enable-libbluray --enable-libdav1d --enable-libharfbuzz --enable-libjxl --enable-libmp3lame --enable-libopus --enable-librav1e --enable-librist --enable-librubberband --enable-libsnappy --enable-libsrt --enable-libsvtav1 --enable-libtesseract --enable-libtheora --enable-libvidstab --enable-libvmaf --enable-libvorbis --enable-libvpx --enable-libwebp --enable-libx264 --enable-libx265 --enable-libxml2 --enable-libxvid --enable-lzma --enable-libfontconfig --enable-libfreetype --enable-frei0r --enable-libass --enable-libopencore-amrnb --enable-libopencore-amrwb --enable-libopenjpeg --enable-libspeex --enable-libsoxr --enable-libzmq --enable-libzimg --disable-libjack --disable-indev=jack --enable-videotoolbox --enable-audiotoolbox
  libavutil      58. 29.100 / 58. 29.100
  libavcodec     60. 31.102 / 60. 31.102
  libavformat    60. 16.100 / 60. 16.100
  libavdevice    60.  3.100 / 60.  3.100
  libavfilter     9. 12.100 /  9. 12.100
  libswscale      7.  5.100 /  7.  5.100
  libswresample   4. 12.100 /  4. 12.100
  libpostproc    57.  3.100 / 57.  3.100
Input #0, image2, from '/Users/lachlan/Nutstore Files/Vlog/transcription_data/IMG_5401_cover.jpg':
  Duration: 00:00:00.04, start: 0.000000, bitrate: 13489 kb/s
  Stream #0:0: Video: mjpeg (Baseline), yuvj420p(pc, bt470bg/unknown/unknown), 1920x1080, 25 fps, 25 tbr, 25 tbn
Stream mapping:
  Stream #0:0 -> #0:0 (mjpeg (native) -> mjpeg (native))
Press [q] to stop, [?] for help
[swscaler @ 0x7fd5355b1000] deprecated pixel format used, make sure you did set range correctly
    Last message repeated 3 times
Output #0, image2, to '/Users/lachlan/Nutstore Files/Vlog/transcription_data/IMG_5401_cover_resized.jpg':
  Metadata:
    encoder         : Lavf60.16.100
  Stream #0:0: Video: mjpeg, yuvj420p(pc, bt470bg/unknown/unknown, progressive), 1200x900, q=2-31, 200 kb/s, 25 fps, 25 tbn
    Metadata:
      encoder         : Lavc60.31.102 mjpeg
    Side data:
      cpb: bitrate max/min/avg: 0/0/200000 buffer size: 0 vbv_delay: N/A
frame=    0 fps=0.0 q=6.6 size=       0kB time=00:00:00.00 bitrate=N/A speed=N/A    [image2 @ 0x7fd53472bd40] The specified filename '/Users/lachlan/Nutstore Files/Vlog/transcription_data/IMG_5401_cover_resized.jpg' does not contain an image sequence pattern or a pattern is invalid.
[image2 @ 0x7fd53472bd40] Use a pattern such as %03d for an image sequence or use the -update option (with -frames:v 1 if needed) to write a single image.
[out#0/image2 @ 0x7fd53472bc80] video:39kB audio:0kB subtitle:0kB other streams:0kB global headers:0kB muxing overhead: unknown
frame=    1 fps=0.0 q=6.6 Lsize=N/A time=00:00:00.00 bitrate=N/A speed=   0x    
Success! Processed files are downloaded and saved to /Users/lachlan/Nutstore Files/Vlog/transcription_data/IMG_5401.zip.
Extracting zipfile...
metadata_json_path:  /Users/lachlan/Nutstore Files/Vlog/transcription_data/IMG_5401_metadata.json
Publishing on Bilibili...
Starting the publishing process on Bilibili...
No alert present.
Uploading video from path: /Users/lachlan/Nutstore Files/Vlog/transcription_data/IMG_5401_highlighted.mp4
Waiting for the video to be uploaded...
Video uploaded successfully!
Handling cover upload.
Resized image saved to /Users/lachlan/Nutstore Files/Vlog/transcription_data/IMG_5401_cover_resized.jpg
Clicked '完成' button.
Cover upload finished.
Entering title...
Entering description...
Selecting category...
Adding tags...
Publishing the video...
CAPTCHA detected. Solving...
{'code': 1, 'message': '', 'data': {'顺序1': {'X坐标值': 138, 'Y坐标值': 276}, '顺序2': {'X坐标值': 277, 'Y坐标值': 62}}}
CAPTCHA solved and confirmed.
No CAPTCHA detected.
No alert present.
Video published successfully!
Success
